<?xml version="1.0" standalone="no"?><!DOCTYPE svg PUBLIC "-//W3C//DTD SVG 1.1//EN" "http://www.w3.org/Graphics/SVG/1.1/DTD/svg11.dtd"><svg t="1723703168733" class="icon" viewBox="0 0 1024 1024" version="1.1" xmlns="http://www.w3.org/2000/svg" p-id="5254" width="14" height="14" xmlns:xlink="http://www.w3.org/1999/xlink"><path d="M784.869197 388.677861c-10.981233 0-21.528997 1.878369-31.354311 5.346127-15.46042-30.776351-47.248201-52.016368-83.948638-52.016368-10.981233 0-21.528997 1.878369-31.354311 5.346126-15.46042-30.776351-47.248201-52.016368-83.948638-52.016368-7.368985 0-14.593481 0.866939-21.528997 2.456329v-90.306195c0-51.727388-42.046564-93.773952-93.773952-93.773952s-93.773952 42.046564-93.773952 93.773952v61.119233c-0.72245-3.034288-1.733879-6.213066-3.323268-9.102865a108.078454 108.078454 0 0 1-13.004092-52.016368c0-60.685763 49.41555-110.101312 110.101312-110.101312S549.061662 146.80175 549.061662 207.487512a36.122478 36.122478 0 0 0 72.244956 0C621.306618 106.922534 539.525328 25.141245 438.96035 25.141245S256.469592 107.067024 256.469592 207.632002c0 30.053902 7.513475 59.963313 21.673487 86.260477a36.021335 36.021335 0 0 0 48.83759 14.593481c9.536334-5.201637 15.7494-14.015521 17.916749-23.696345v253.579794l-30.053902-30.053902a99.770284 99.770284 0 0 0-140.733173 0c-38.723296 38.723296-38.723296 101.865387 0 140.733174L450.086073 924.735431a248.956117 248.956117 0 0 0 177.722591 73.978835c138.276845 0 250.834486-112.557641 250.834485-250.834486V482.451813c0-51.727388-42.046564-93.773952-93.773952-93.773952z m21.528997 359.057429c0 98.542119-80.047411 178.58953-178.58953 178.58953-47.826161 0-92.762523-18.639199-126.573162-52.738817L225.548751 598.188232a27.20745 27.20745 0 0 1 19.217158-46.525751c6.935516 0 13.871031 2.600818 19.217159 7.946945l91.606603 91.606603a36.050233 36.050233 0 0 0 61.552702-25.574714V207.632002c0-11.848173 9.680824-21.528997 21.528997-21.528996s21.528997 9.680824 21.528997 21.528996v181.623819a36.122478 36.122478 0 0 0 72.244955 0c0-11.848173 9.680824-21.528997 21.528997-21.528997s21.528997 9.680824 21.528997 21.528997v46.525751a36.122478 36.122478 0 0 0 72.244955 0c0-11.848173 9.680824-21.528997 21.528997-21.528997s21.528997 9.680824 21.528997 21.528997v46.670241a36.122478 36.122478 0 0 0 72.244956 0c0-11.848173 9.680824-21.528997 21.528996-21.528997s21.528997 9.680824 21.528997 21.528997v265.283477z" fill="#1296db" p-id="5255"></path></svg>