<?xml version="1.0" standalone="no"?><!DOCTYPE svg PUBLIC "-//W3C//DTD SVG 1.1//EN" "http://www.w3.org/Graphics/SVG/1.1/DTD/svg11.dtd"><svg t="1723606906534" class="icon" viewBox="0 0 1024 1024" version="1.1" xmlns="http://www.w3.org/2000/svg" p-id="1537" xmlns:xlink="http://www.w3.org/1999/xlink" width="256" height="256"><path d="M568.32 680.96h-86.016c-8.192 0-15.36-7.168-15.36-15.36V380.928h-99.328c-8.192 0-15.36-7.168-15.36-15.36v-86.016c0-8.192 7.168-15.36 15.36-15.36h99.328v-99.328c0-8.192 7.168-15.36 15.36-15.36h86.016c8.192 0 15.36 7.168 15.36 15.36v99.328h99.328c8.192 0 15.36 7.168 15.36 15.36v86.016c0 8.192-7.168 15.36-15.36 15.36H583.68V665.6c0 9.216-7.168 15.36-15.36 15.36z m-70.656-30.72H552.96V365.568c0-8.192 7.168-15.36 15.36-15.36h99.328v-55.296h-99.328c-8.192 0-15.36-7.168-15.36-15.36v-99.328h-55.296v99.328c0 8.192-7.168 15.36-15.36 15.36h-99.328v55.296h99.328c8.192 0 15.36 7.168 15.36 15.36v284.672zM835.584 858.112H461.824v-30.72h342.016c-4.096-9.216-7.168-20.48-7.168-31.744s2.048-21.504 7.168-30.72h-542.72c-17.408 0-30.72 14.336-30.72 30.72 0 17.408 14.336 30.72 30.72 30.72h80.896v30.72h-80.896c-33.792 0-61.44-27.648-61.44-61.44s27.648-61.44 61.44-61.44h574.464c6.144 0 12.288 4.096 14.336 10.24 2.048 6.144 0 13.312-5.12 17.408-11.264 8.192-17.408 20.48-17.408 33.792 0 13.312 6.144 26.624 17.408 34.816 5.12 4.096 7.168 11.264 5.12 17.408-2.048 5.12-8.192 10.24-14.336 10.24z" fill="#e6e6e6" p-id="1538"></path><path d="M215.04 795.648c-2.048 0-3.072 0-4.096-1.024-6.144-2.048-11.264-8.192-11.264-15.36V146.432c0-44.032 35.84-79.872 79.872-79.872h556.032c8.192 0 15.36 7.168 15.36 15.36v667.648c0 8.192-7.168 15.36-15.36 15.36H261.12c-16.384 0-26.624 12.288-31.744 22.528-5.12 6.144-10.24 8.192-14.336 8.192z m64.512-698.368c-27.648 0-49.152 22.528-49.152 49.152v595.968c9.216-6.144 19.456-8.192 30.72-8.192h559.104V97.28H279.552z" fill="#e6e6e6" p-id="1539"></path><path d="M461.824 919.552c-3.072 0-6.144-1.024-9.216-3.072L399.36 876.544l-53.248 39.936c-5.12 3.072-11.264 4.096-16.384 1.024-5.12-3.072-8.192-8.192-8.192-13.312v-153.6c0-8.192 7.168-15.36 15.36-15.36s15.36 7.168 15.36 15.36v122.88l37.888-28.672c5.12-4.096 13.312-4.096 18.432 0l37.888 28.672v-122.88c0-8.192 7.168-15.36 15.36-15.36s15.36 7.168 15.36 15.36v153.6c0 6.144-3.072 11.264-8.192 13.312-2.048 2.048-5.12 2.048-7.168 2.048z" fill="#e6e6e6" p-id="1540"></path></svg>