<?xml version="1.0" standalone="no"?><!DOCTYPE svg PUBLIC "-//W3C//DTD SVG 1.1//EN" "http://www.w3.org/Graphics/SVG/1.1/DTD/svg11.dtd"><svg t="1724033759199" class="icon" viewBox="0 0 1024 1024" version="1.1" xmlns="http://www.w3.org/2000/svg" p-id="4293" xmlns:xlink="http://www.w3.org/1999/xlink" width="14" height="14"><path d="M760.685714 536.380952c-121.904762 0-224.304762 97.52381-224.304762 224.304762 0 121.904762 97.52381 224.304762 224.304762 224.304762 121.904762 0 224.304762-97.52381 224.304762-224.304762-4.87619-126.780952-102.4-224.304762-224.304762-224.304762z m0 365.714286c-78.019048 0-146.285714-63.390476-146.285714-146.285714 0-78.019048 63.390476-146.285714 146.285714-146.285714 78.019048 0 146.285714 63.390476 146.285715 146.285714-4.87619 82.895238-68.266667 146.285714-146.285715 146.285714z" p-id="4294" fill="#dbdbdb"></path><path d="M512 555.885714c141.409524 0 258.438095-117.028571 258.438095-258.438095S653.409524 39.009524 512 39.009524 253.561905 160.914286 253.561905 302.32381c0 78.019048 34.133333 146.285714 87.771428 190.171428-175.542857 68.266667-302.32381 238.933333-302.323809 438.857143v48.761905h468.114286v-97.52381H141.409524c24.380952-185.295238 180.419048-326.704762 370.590476-326.704762zM351.085714 302.32381c0-87.771429 73.142857-160.914286 160.914286-160.914286s160.914286 73.142857 160.914286 160.914286-73.142857 160.914286-160.914286 160.914285-160.914286-78.019048-160.914286-160.914285zM736.304762 750.933333l-34.133333-39.009523-58.514286 53.638095 87.771428 87.771428 151.161905-117.028571-48.761905-63.390476z" p-id="4295" fill="#dbdbdb"></path></svg>